<svg xmlns="http://www.w3.org/2000/svg" width="300" height="100" viewBox="0 0 300 100">
  <g stroke="#1746a2" stroke-width="3" fill="none">
    <path d="M0,20 Q150,25 280,18 T300,22" />
    <path d="M15,35 Q150,30 280,38 T300,32" />
    <path d="M0,48 Q100,52 200,46 T300,52" />
    <path d="M40,65 Q150,58 250,66 T290,60" />
    <path d="M0,75 Q120,78 220,72 T250,78" />
    <path d="M10,92 Q150,88 280,94 T300,88" />
    <path d="M0,25 Q100,28 180,22 T200,28" />
    <path d="M100,42 Q200,48 280,40 T300,45" />
    <path d="M50,58 Q160,52 250,60 T270,55" />
    <path d="M0,82 Q90,78 160,84 T180,80" />
    <path d="M70,15 Q180,20 270,12 T300,18" />
    <path d="M0,70 Q110,65 200,72 T220,68" />
  </g>
</svg>
